<svg width="124" height="125" viewBox="0 0 124 125" fill="none" xmlns="http://www.w3.org/2000/svg">
<path d="M103.904 0.731018H47.2231V77.1966H123.751V20.5163C123.751 9.65927 114.817 0.731018 103.966 0.731018C103.947 0.731018 103.922 0.731018 103.904 0.731018V0.731018Z" fill="white"/>
<path d="M29.5534 0.731018H19.7852C8.93447 0.731018 0 9.66549 0 20.5163V30.2845H29.5534V0.731018Z" fill="white"/>
<path d="M0 47.9543H29.5534V77.5077H0V47.9543Z" fill="white"/>
<path d="M94.4465 124.482H104.215C115.072 124.482 124 115.548 124 104.697C124 104.678 124 104.653 124 104.635V95.1776H94.4465V124.482Z" fill="white"/>
<path d="M47.2231 95.1776H76.7766V124.731H47.2231V95.1776Z" fill="white"/>
<path d="M0 95.1776V104.946C0 115.797 8.93447 124.731 19.7852 124.731H29.5534V95.1776H0Z" fill="white"/>
</svg>
