<svg width="120" height="173" viewBox="0 0 120 173" fill="none" xmlns="http://www.w3.org/2000/svg">
<path d="M59.879 0.707031C36.316 0.707031 17.212 19.81 17.212 43.374V59.327C8.94302 60.806 0.598022 62.849 0.598022 65.46V149.046C0.598022 149.046 0.598024 151.39 3.15102 152.405C12.578 156.156 49.589 169.274 58.083 172.278C59.202 172.674 59.438 172.663 59.826 172.663C60.234 172.663 60.445 172.677 61.555 172.284C70.033 169.287 107.172 156.136 116.54 152.427C118.973 151.464 119.043 149.08 119.043 149.08V65.464C119.043 62.854 110.814 60.806 102.544 59.326V43.373C102.545 19.81 83.442 0.707031 59.879 0.707031ZM59.879 21.098C73.739 21.098 82.171 29.514 82.171 43.374V57.272C66.522 56.132 53.224 56.132 37.573 57.272V43.374C37.573 29.513 46.017 21.098 59.879 21.098ZM59.824 77.79C79.213 77.821 95.512 79.265 95.512 82.025C95.512 82.025 95.512 133.346 95.512 134.105C95.512 134.865 95.392 134.993 94.671 135.266C93.951 135.54 61.522 147.259 61.522 147.259C61.522 147.259 60.191 147.701 59.825 147.701C59.41 147.701 58.078 147.241 58.078 147.241C58.078 147.241 25.663 135.533 24.935 135.258C24.206 134.984 24.112 134.842 24.112 134.076C24.112 133.232 24.112 82.023 24.112 82.023C24.112 79.188 40.436 77.759 59.824 77.79Z" fill="white"/>
</svg>
